# xmcd
#
# Track frame offsets:
#	150
#	25205
#	66005
#	91880
#	113827
#	137990
#	152055
#	175095
#	195784
#	223392
#
# Disc length: 3213 seconds
#
# Revision: 0
# Processed by: cddbd v1.5.2PL0 Copyright (c) Steve Scherf et al.
# Submitted via: EasyCDDAExtractor 10.0.6.1
#
DISCID=850c8b0a
DTITLE=eysuhl™ Cinderella - Cinderella [1994 Mercury 522947] Still Climbing
DYEAR=1994
DGENRE=Metal
TTITLE0=Bad Attitude Shuffle
TTITLE1=All Comes Down
TTITLE2=Talk is Cheap
TTITLE3=Hard To Find The Words
TTITLE4=Blood From a Stone
TTITLE5=Still Climbing
TTITLE6=Freewheelin
TTITLE7=Through The Rain
TTITLE8=Easy Come Easy Go
TTITLE9=The Road's Still long
EXTD=
EXTT0=
EXTT1=
EXTT2=
EXTT3=
EXTT4=
EXTT5=
EXTT6=
EXTT7=
EXTT8=
EXTT9=
PLAYORDER=
